<svg width="524" height="174" viewBox="0 0 524 174" fill="none" xmlns="http://www.w3.org/2000/svg">
<path d="M119.26 124.938C120.812 128.755 122.483 131.618 124.273 133.526C126.183 135.315 128.033 136.269 129.824 136.388V139.967C121.23 139.609 110.368 139.43 97.2383 139.43C83.6312 139.43 73.605 139.609 67.1596 139.967V136.388C71.6952 136.15 74.918 135.613 76.8277 134.778C78.7375 133.824 79.6924 132.214 79.6924 129.948C79.6924 127.801 78.9762 124.938 77.5439 121.36L66.9805 92.0189H30.8144L27.7707 100.07C23.8319 110.208 21.8624 117.961 21.8624 123.328C21.8624 128.218 23.2351 131.558 25.9803 133.347C28.7256 135.136 32.7839 136.15 38.1551 136.388V139.967C29.2031 139.609 21.385 139.43 14.7008 139.43C9.0909 139.43 4.49554 139.609 0.914734 139.967V136.388C3.89874 135.911 6.7037 134.063 9.32962 130.842C11.9555 127.622 14.6411 122.493 17.3864 115.456L57.1333 13.2988C60.9528 13.5373 64.1159 13.6566 66.6224 13.6566C69.0096 13.6566 72.113 13.5373 75.9325 13.2988L119.26 124.938ZM65.7272 88.4407L49.4346 43.7133L32.2467 88.4407H65.7272Z" fill="#5246D8"/>
<path d="M169.997 44.6079C174.652 44.6079 179.009 45.1446 183.067 46.2181C187.245 47.1723 190.408 48.2457 192.556 49.4384C193.869 50.1541 194.943 50.5119 195.779 50.5119C198.285 50.5119 199.777 48.6035 200.255 44.7868H203.836C203.358 50.989 203.12 61.7236 203.12 76.9905H199.539C198.584 69.1185 196.316 62.4988 192.735 57.1315C189.274 51.645 184.201 48.9017 177.517 48.9017C174.533 48.9017 172.026 49.7963 169.997 51.5854C167.968 53.3745 166.953 55.8196 166.953 58.9207C166.953 62.8567 168.266 66.3752 170.892 69.4763C173.518 72.4581 177.636 76.1556 183.246 80.5687C183.485 80.688 185.215 82.0596 188.438 84.6836C195.122 90.1702 200.016 95.0604 203.12 99.3542C206.223 103.529 207.775 108.717 207.775 114.919C207.775 120.167 206.163 124.938 202.94 129.232C199.718 133.407 195.301 136.687 189.692 139.072C184.201 141.338 178.173 142.471 171.608 142.471C164.089 142.471 157.942 140.98 153.167 137.999C151.138 136.925 149.467 136.15 148.154 135.673C146.841 135.196 145.528 134.957 144.215 134.957C141.947 134.957 140.276 137.044 139.202 141.219H135.621C136.099 134.42 136.338 122.493 136.338 105.437H139.918C140.993 115.217 143.619 123.09 147.796 129.053C151.974 135.017 157.226 137.999 163.552 137.999C166.536 137.999 168.983 137.164 170.892 135.494C172.921 133.824 173.936 131.379 173.936 128.159C173.936 124.819 173.22 121.837 171.787 119.213C170.475 116.589 168.803 114.263 166.774 112.236C164.865 110.089 161.702 107.047 157.285 103.111C152.272 98.4596 148.453 94.7622 145.827 92.0189C143.201 89.2756 140.933 86.1149 139.023 82.5367C137.233 78.8392 136.338 74.7839 136.338 70.3708C136.338 65.2421 137.889 60.7097 140.993 56.7737C144.096 52.8377 148.214 49.8559 153.346 47.8283C158.479 45.6814 164.029 44.6079 169.997 44.6079Z" fill="#5246D8"/>
<path d="M258.565 58.0261C263.936 49.0806 273.425 44.6079 287.032 44.6079C296.581 44.6079 303.325 46.9934 307.263 51.7643C309.054 53.9112 310.367 56.8334 311.202 60.5308C312.038 64.109 312.456 68.8799 312.456 74.8436V123.328C312.456 128.218 313.172 131.618 314.604 133.526C316.156 135.315 318.782 136.21 322.482 136.21V139.967C309.591 139.49 301.236 139.251 297.416 139.251C293.358 139.251 284.883 139.49 271.993 139.967V136.21C275.096 136.21 277.244 135.315 278.438 133.526C279.632 131.618 280.228 128.218 280.228 123.328V65.1825C280.228 61.3658 279.512 58.5628 278.08 56.7737C276.767 54.8654 274.559 53.9112 271.455 53.9112C267.994 53.9112 264.95 55.1635 262.324 57.6683C259.818 60.0537 258.565 63.0952 258.565 66.7927V123.328C258.565 128.218 259.161 131.618 260.355 133.526C261.549 135.315 263.697 136.21 266.8 136.21V139.967C254.864 139.49 246.987 139.251 243.167 139.251C239.109 139.251 230.157 139.49 216.311 139.967V136.21C220.011 136.21 222.578 135.315 224.01 133.526C225.562 131.618 226.337 128.218 226.337 123.328V21.5286C226.337 16.042 225.562 12.0464 224.01 9.54165C222.578 7.03692 220.011 5.78455 216.311 5.78455V2.02746C220.011 2.38528 223.711 2.56419 227.412 2.56419C239.825 2.56419 250.209 1.72928 258.565 0.0594482V58.0261Z" fill="#5246D8"/>
<path d="M395.185 44.6079C404.495 44.6079 412.014 48.4246 417.744 56.0581C423.473 63.6916 426.338 74.8436 426.338 89.5142C426.338 108.479 422.518 122.076 414.879 130.306C407.24 138.416 397.154 142.471 384.621 142.471C380.802 142.471 377.579 142.352 374.953 142.114C372.447 141.875 370.119 141.279 367.971 140.324C363.554 138.535 358.959 137.641 354.185 137.641C350.604 137.641 347.262 138.118 344.158 139.072C341.055 140.026 338.668 141.279 336.997 142.829L334.49 141.04C335.326 138.535 335.743 135.255 335.743 131.2V21.5286C335.743 16.042 334.968 12.0464 333.416 9.54165C331.984 7.03692 329.417 5.78455 325.717 5.78455V2.02746C329.417 2.38528 333.117 2.56419 336.818 2.56419C349.231 2.56419 359.615 1.72928 367.971 0.0594482V58.0261C373.461 49.0806 382.533 44.6079 395.185 44.6079ZM376.385 138.893C387.367 138.893 392.857 123.805 392.857 93.6291C392.857 78.9585 391.783 68.701 389.634 62.8567C387.486 56.893 384.562 53.9112 380.862 53.9112C377.4 53.9112 374.356 55.1635 371.73 57.6683C369.224 60.0537 367.971 63.0952 367.971 66.7927V136.746C370.716 138.178 373.521 138.893 376.385 138.893Z" fill="#5246D8"/>
<path d="M509.405 47.8283C516.209 47.8283 520.804 47.5897 523.191 47.1126V50.8697C520.685 51.7046 518.357 53.4341 516.209 56.0581C514.18 58.6821 512.27 62.7374 510.479 68.2239L488.099 134.778L480.58 156.426C478.431 162.628 475.805 166.922 472.702 169.308C469.002 172.17 463.452 173.602 456.051 173.602C450.083 173.602 444.533 172.17 439.401 169.308C434.268 166.564 431.702 162.39 431.702 156.784C431.702 152.61 433.313 149.27 436.536 146.765C439.759 144.26 443.996 143.008 449.248 143.008C454.261 143.008 458.2 144.141 461.064 146.407C463.929 148.674 465.361 151.954 465.361 156.247C465.361 159.11 464.347 161.794 462.318 164.298C460.408 166.922 457.543 168.831 453.724 170.023C454.917 170.262 456.947 170.381 459.811 170.381C468.047 170.381 473.717 165.61 476.82 156.068L477.715 153.027L435.999 60.8887C434.208 56.8334 432.418 54.1497 430.628 52.8377C428.957 51.5257 427.286 50.8697 425.615 50.8697V47.1126C435.163 47.8283 444.891 48.1861 454.798 48.1861C462.556 48.1861 471.21 47.8283 480.759 47.1126V50.8697C477.297 50.8697 474.612 51.1083 472.702 51.5854C470.912 52.0625 470.016 53.1359 470.016 54.8057C470.016 55.7599 470.255 56.7141 470.733 57.6683L492.755 110.089L500.274 87.1883C502.542 80.2705 503.676 74.1876 503.676 68.9396C503.676 63.3337 502.482 58.9803 500.095 55.8792C497.708 52.7781 494.545 51.1083 490.606 50.8697V47.1126C495.022 47.5897 501.289 47.8283 509.405 47.8283Z" fill="#5246D8"/>
</svg>
